<svg xmlns="http://www.w3.org/2000/svg" viewBox="0 0 1200 760" role="img" aria-label="Water Entry Dynamics">
  <defs>
    <linearGradient id="bg" x1="0" y1="0" x2="1" y2="1">
      <stop offset="0" stop-color="#04111f"/>
      <stop offset=".5" stop-color="#061a2f"/>
      <stop offset="1" stop-color="#101827"/>
    </linearGradient>
    <linearGradient id="a" x1="0" y1="0" x2="1" y2="1">
      <stop offset="0" stop-color="#38bdf8"/>
      <stop offset="1" stop-color="#f97316"/>
    </linearGradient>
    <filter id="glow"><feGaussianBlur stdDeviation="7" result="b"/><feMerge><feMergeNode in="b"/><feMergeNode in="SourceGraphic"/></feMerge></filter>
  </defs>
  <rect width="1200" height="760" rx="42" fill="url(#bg)"/>
  <path d="M0 140 C250 80 420 210 650 130 S1030 80 1200 170" fill="none" stroke="#38bdf8" stroke-opacity=".18" stroke-width="2"/>
  <path d="M0 640 C290 570 430 690 710 600 S1040 560 1200 650" fill="none" stroke="#f97316" stroke-opacity=".16" stroke-width="2"/>
  <g opacity=".18">
    <path d="M80 80H1120M80 180H1120M80 280H1120M80 380H1120M80 480H1120M80 580H1120M80 680H1120" stroke="#dbeafe"/>
    <path d="M100 60V700M240 60V700M380 60V700M520 60V700M660 60V700M800 60V700M940 60V700M1080 60V700" stroke="#dbeafe"/>
  </g>
  <text x="70" y="96" fill="#f8fafc" font-size="46" font-family="Inter, Arial" font-weight="800">Water Entry Dynamics</text>
  <text x="72" y="138" fill="#93c5fd" font-size="22" font-family="Inter, Arial">2D fluid-response simulation</text>
  <g transform="translate(110 190)">
  <rect width="980" height="440" rx="34" fill="#071827" stroke="#38bdf8" stroke-opacity=".35"/>
  <rect x="70" y="250" width="840" height="110" rx="22" fill="#082f49" opacity=".7"/>
  <path d="M80 250C190 220 270 290 385 252S600 220 710 252S850 285 920 242" fill="none" stroke="#38bdf8" stroke-width="5"/>
  <g transform="translate(485 165) rotate(28)">
    <rect x="-18" y="-70" width="36" height="140" rx="18" fill="url(#a)" filter="url(#glow)"/>
  </g>
  <g fill="none" stroke="#f97316" opacity=".55">
    <ellipse cx="520" cy="265" rx="75" ry="24"/><ellipse cx="520" cy="265" rx="130" ry="40"/><ellipse cx="520" cy="265" rx="190" ry="58"/>
  </g>
  <text x="72" y="74" fill="#e0f2fe" font-size="28" font-family="Inter, Arial" font-weight="700">Gravity • drag • buoyancy • surface response</text>
  <text x="72" y="410" fill="#94a3b8" font-size="22" font-family="Inter, Arial">Python + NumPy + Matplotlib visualization pipeline</text>
</g>
</svg>